<mxfile host="app.diagrams.net" modified="2022-06-28T11:05:25.925Z" agent="5.0 (Windows NT 10.0; Win64; x64) AppleWebKit/537.36 (KHTML, like Gecko) Chrome/102.0.0.0 Safari/537.36" etag="9Il3-0ZpB1O-RCH91nVi" version="20.0.3" type="github">
  <diagram id="Mso7r11oGm82ifSHZ_Ct" name="Page-1">
    <mxGraphModel dx="1280" dy="922" grid="1" gridSize="10" guides="1" tooltips="1" connect="1" arrows="1" fold="1" page="1" pageScale="1" pageWidth="800" pageHeight="700" math="0" shadow="0">
      <root>
        <mxCell id="0" />
        <mxCell id="1" parent="0" />
        <mxCell id="8J5b4x6bjnte7Qw-fBxY-11" value="Generic group" style="dashed=0;verticalAlign=top;fontStyle=0;noLabel=1;fillColor=none;strokeColor=#707070;" parent="1" vertex="1">
          <mxGeometry x="467" y="257" width="280" height="200" as="geometry" />
        </mxCell>
        <mxCell id="8J5b4x6bjnte7Qw-fBxY-1" value="" style="sketch=0;points=[[0,0,0],[0.25,0,0],[0.5,0,0],[0.75,0,0],[1,0,0],[0,1,0],[0.25,1,0],[0.5,1,0],[0.75,1,0],[1,1,0],[0,0.25,0],[0,0.5,0],[0,0.75,0],[1,0.25,0],[1,0.5,0],[1,0.75,0]];outlineConnect=0;fontColor=#232F3E;gradientColor=#F54749;gradientDirection=north;fillColor=#C7131F;strokeColor=#ffffff;dashed=0;verticalLabelPosition=bottom;verticalAlign=top;align=center;html=1;fontSize=12;fontStyle=0;aspect=fixed;shape=mxgraph.aws4.resourceIcon;resIcon=mxgraph.aws4.cognito;" parent="1" vertex="1">
          <mxGeometry x="287" y="67" width="78" height="78" as="geometry" />
        </mxCell>
        <mxCell id="8J5b4x6bjnte7Qw-fBxY-2" value="" style="sketch=0;points=[[0,0,0],[0.25,0,0],[0.5,0,0],[0.75,0,0],[1,0,0],[0,1,0],[0.25,1,0],[0.5,1,0],[0.75,1,0],[1,1,0],[0,0.25,0],[0,0.5,0],[0,0.75,0],[1,0.25,0],[1,0.5,0],[1,0.75,0]];outlineConnect=0;fontColor=#232F3E;gradientColor=#F78E04;gradientDirection=north;fillColor=#D05C17;strokeColor=#ffffff;dashed=0;verticalLabelPosition=bottom;verticalAlign=top;align=center;html=1;fontSize=12;fontStyle=0;aspect=fixed;shape=mxgraph.aws4.resourceIcon;resIcon=mxgraph.aws4.lambda;" parent="1" vertex="1">
          <mxGeometry x="478" y="273" width="78" height="78" as="geometry" />
        </mxCell>
        <mxCell id="8J5b4x6bjnte7Qw-fBxY-3" value="" style="sketch=0;points=[[0,0,0],[0.25,0,0],[0.5,0,0],[0.75,0,0],[1,0,0],[0,1,0],[0.25,1,0],[0.5,1,0],[0.75,1,0],[1,1,0],[0,0.25,0],[0,0.5,0],[0,0.75,0],[1,0.25,0],[1,0.5,0],[1,0.75,0]];outlineConnect=0;fontColor=#232F3E;gradientColor=#FF4F8B;gradientDirection=north;fillColor=#BC1356;strokeColor=#ffffff;dashed=0;verticalLabelPosition=bottom;verticalAlign=top;align=center;html=1;fontSize=12;fontStyle=0;aspect=fixed;shape=mxgraph.aws4.resourceIcon;resIcon=mxgraph.aws4.api_gateway;" parent="1" vertex="1">
          <mxGeometry x="287" y="327" width="78" height="78" as="geometry" />
        </mxCell>
        <mxCell id="8J5b4x6bjnte7Qw-fBxY-4" value="" style="sketch=0;points=[[0,0,0],[0.25,0,0],[0.5,0,0],[0.75,0,0],[1,0,0],[0,1,0],[0.25,1,0],[0.5,1,0],[0.75,1,0],[1,1,0],[0,0.25,0],[0,0.5,0],[0,0.75,0],[1,0.25,0],[1,0.5,0],[1,0.75,0]];outlineConnect=0;fontColor=#232F3E;gradientColor=#F78E04;gradientDirection=north;fillColor=#D05C17;strokeColor=#ffffff;dashed=0;verticalLabelPosition=bottom;verticalAlign=top;align=center;html=1;fontSize=12;fontStyle=0;aspect=fixed;shape=mxgraph.aws4.resourceIcon;resIcon=mxgraph.aws4.lambda;" parent="1" vertex="1">
          <mxGeometry x="528" y="363" width="78" height="78" as="geometry" />
        </mxCell>
        <mxCell id="8J5b4x6bjnte7Qw-fBxY-5" value="" style="sketch=0;points=[[0,0,0],[0.25,0,0],[0.5,0,0],[0.75,0,0],[1,0,0],[0,1,0],[0.25,1,0],[0.5,1,0],[0.75,1,0],[1,1,0],[0,0.25,0],[0,0.5,0],[0,0.75,0],[1,0.25,0],[1,0.5,0],[1,0.75,0]];outlineConnect=0;fontColor=#232F3E;gradientColor=#F78E04;gradientDirection=north;fillColor=#D05C17;strokeColor=#ffffff;dashed=0;verticalLabelPosition=bottom;verticalAlign=top;align=center;html=1;fontSize=12;fontStyle=0;aspect=fixed;shape=mxgraph.aws4.resourceIcon;resIcon=mxgraph.aws4.lambda;" parent="1" vertex="1">
          <mxGeometry x="618" y="363" width="78" height="78" as="geometry" />
        </mxCell>
        <mxCell id="8J5b4x6bjnte7Qw-fBxY-6" value="" style="sketch=0;points=[[0,0,0],[0.25,0,0],[0.5,0,0],[0.75,0,0],[1,0,0],[0,1,0],[0.25,1,0],[0.5,1,0],[0.75,1,0],[1,1,0],[0,0.25,0],[0,0.5,0],[0,0.75,0],[1,0.25,0],[1,0.5,0],[1,0.75,0]];outlineConnect=0;fontColor=#232F3E;gradientColor=#F78E04;gradientDirection=north;fillColor=#D05C17;strokeColor=#ffffff;dashed=0;verticalLabelPosition=bottom;verticalAlign=top;align=center;html=1;fontSize=12;fontStyle=0;aspect=fixed;shape=mxgraph.aws4.resourceIcon;resIcon=mxgraph.aws4.lambda;" parent="1" vertex="1">
          <mxGeometry x="568" y="273" width="78" height="78" as="geometry" />
        </mxCell>
        <mxCell id="8J5b4x6bjnte7Qw-fBxY-7" value="" style="sketch=0;points=[[0,0,0],[0.25,0,0],[0.5,0,0],[0.75,0,0],[1,0,0],[0,1,0],[0.25,1,0],[0.5,1,0],[0.75,1,0],[1,1,0],[0,0.25,0],[0,0.5,0],[0,0.75,0],[1,0.25,0],[1,0.5,0],[1,0.75,0]];outlineConnect=0;fontColor=#232F3E;gradientColor=#F78E04;gradientDirection=north;fillColor=#D05C17;strokeColor=#ffffff;dashed=0;verticalLabelPosition=bottom;verticalAlign=top;align=center;html=1;fontSize=12;fontStyle=0;aspect=fixed;shape=mxgraph.aws4.resourceIcon;resIcon=mxgraph.aws4.lambda;" parent="1" vertex="1">
          <mxGeometry x="658" y="273" width="78" height="78" as="geometry" />
        </mxCell>
        <mxCell id="8J5b4x6bjnte7Qw-fBxY-8" value="" style="edgeStyle=orthogonalEdgeStyle;html=1;endArrow=none;elbow=vertical;startArrow=block;startFill=1;strokeColor=#545B64;rounded=0;entryX=0.25;entryY=0;entryDx=0;entryDy=0;entryPerimeter=0;exitX=0.25;exitY=1;exitDx=0;exitDy=0;exitPerimeter=0;" parent="1" edge="1">
          <mxGeometry width="100" relative="1" as="geometry">
            <mxPoint x="314.5" y="145" as="sourcePoint" />
            <mxPoint x="314.5" y="327" as="targetPoint" />
          </mxGeometry>
        </mxCell>
        <mxCell id="8J5b4x6bjnte7Qw-fBxY-9" value="" style="edgeStyle=orthogonalEdgeStyle;html=1;endArrow=block;elbow=vertical;startArrow=none;endFill=1;strokeColor=#545B64;rounded=0;exitX=0.75;exitY=1;exitDx=0;exitDy=0;exitPerimeter=0;entryX=0.75;entryY=0;entryDx=0;entryDy=0;entryPerimeter=0;" parent="1" edge="1">
          <mxGeometry width="100" relative="1" as="geometry">
            <mxPoint x="337.5" y="145" as="sourcePoint" />
            <mxPoint x="337.5" y="327" as="targetPoint" />
          </mxGeometry>
        </mxCell>
        <mxCell id="8J5b4x6bjnte7Qw-fBxY-10" value="" style="edgeStyle=orthogonalEdgeStyle;html=1;endArrow=block;elbow=vertical;startArrow=none;endFill=1;strokeColor=#545B64;rounded=0;entryX=0;entryY=0.5;entryDx=0;entryDy=0;" parent="1" target="8J5b4x6bjnte7Qw-fBxY-11" edge="1">
          <mxGeometry width="100" relative="1" as="geometry">
            <mxPoint x="367" y="357" as="sourcePoint" />
            <mxPoint x="417" y="477" as="targetPoint" />
          </mxGeometry>
        </mxCell>
        <mxCell id="8J5b4x6bjnte7Qw-fBxY-14" value="" style="edgeStyle=orthogonalEdgeStyle;html=1;endArrow=none;elbow=vertical;startArrow=block;startFill=1;strokeColor=#545B64;rounded=0;" parent="1" edge="1">
          <mxGeometry width="100" relative="1" as="geometry">
            <mxPoint x="367" y="377" as="sourcePoint" />
            <mxPoint x="467" y="377" as="targetPoint" />
          </mxGeometry>
        </mxCell>
        <mxCell id="8J5b4x6bjnte7Qw-fBxY-16" value="" style="sketch=0;outlineConnect=0;fontColor=#232F3E;gradientColor=none;fillColor=#232F3D;strokeColor=none;dashed=0;verticalLabelPosition=bottom;verticalAlign=top;align=center;html=1;fontSize=12;fontStyle=0;aspect=fixed;pointerEvents=1;shape=mxgraph.aws4.user;" parent="1" vertex="1">
          <mxGeometry x="67" y="363" width="40" height="40" as="geometry" />
        </mxCell>
        <mxCell id="8J5b4x6bjnte7Qw-fBxY-17" value="" style="sketch=0;outlineConnect=0;fontColor=#232F3E;gradientColor=none;fillColor=#232F3D;strokeColor=none;dashed=0;verticalLabelPosition=bottom;verticalAlign=top;align=center;html=1;fontSize=12;fontStyle=0;aspect=fixed;pointerEvents=1;shape=mxgraph.aws4.client;" parent="1" vertex="1">
          <mxGeometry x="107" y="329" width="78" height="76" as="geometry" />
        </mxCell>
        <mxCell id="8J5b4x6bjnte7Qw-fBxY-21" value="構築対象外" style="fillColor=#EFF0F3;strokeColor=none;dashed=0;verticalAlign=top;fontStyle=0;fontColor=#232F3D;opacity=60;" parent="1" vertex="1">
          <mxGeometry x="55" y="299" width="150" height="136" as="geometry" />
        </mxCell>
        <mxCell id="8J5b4x6bjnte7Qw-fBxY-20" value="" style="edgeStyle=orthogonalEdgeStyle;html=1;endArrow=none;elbow=vertical;startArrow=block;startFill=1;strokeColor=#545B64;rounded=0;" parent="1" edge="1">
          <mxGeometry width="100" relative="1" as="geometry">
            <mxPoint x="187" y="376.5" as="sourcePoint" />
            <mxPoint x="287" y="376.5" as="targetPoint" />
          </mxGeometry>
        </mxCell>
        <mxCell id="8J5b4x6bjnte7Qw-fBxY-19" value="" style="edgeStyle=orthogonalEdgeStyle;html=1;endArrow=block;elbow=vertical;startArrow=none;endFill=1;strokeColor=#545B64;rounded=0;entryX=0;entryY=0.5;entryDx=0;entryDy=0;" parent="1" edge="1">
          <mxGeometry width="100" relative="1" as="geometry">
            <mxPoint x="187" y="356.5" as="sourcePoint" />
            <mxPoint x="287" y="356.5" as="targetPoint" />
          </mxGeometry>
        </mxCell>
        <mxCell id="8J5b4x6bjnte7Qw-fBxY-22" value="" style="html=1;endArrow=block;elbow=vertical;startArrow=none;endFill=1;strokeColor=#545B64;rounded=0;fontColor=none;" parent="1" edge="1">
          <mxGeometry width="100" relative="1" as="geometry">
            <mxPoint x="107" y="287" as="sourcePoint" />
            <mxPoint x="277" y="107" as="targetPoint" />
          </mxGeometry>
        </mxCell>
        <mxCell id="8J5b4x6bjnte7Qw-fBxY-23" value="" style="html=1;endArrow=none;elbow=vertical;startArrow=block;endFill=0;strokeColor=#545B64;rounded=0;fontColor=none;startFill=1;" parent="1" edge="1">
          <mxGeometry width="100" relative="1" as="geometry">
            <mxPoint x="117" y="297" as="sourcePoint" />
            <mxPoint x="287" y="117" as="targetPoint" />
          </mxGeometry>
        </mxCell>
        <mxCell id="8J5b4x6bjnte7Qw-fBxY-24" value="Login" style="text;html=1;resizable=0;autosize=1;align=center;verticalAlign=middle;points=[];fillColor=none;strokeColor=none;rounded=0;fontColor=none;opacity=60;" parent="1" vertex="1">
          <mxGeometry x="134" y="181" width="50" height="30" as="geometry" />
        </mxCell>
        <mxCell id="8J5b4x6bjnte7Qw-fBxY-25" value="Token" style="text;html=1;resizable=0;autosize=1;align=center;verticalAlign=middle;points=[];fillColor=none;strokeColor=none;rounded=0;fontColor=none;opacity=60;" parent="1" vertex="1">
          <mxGeometry x="185" y="207" width="60" height="30" as="geometry" />
        </mxCell>
        <mxCell id="8J5b4x6bjnte7Qw-fBxY-26" value="Cognito" style="text;html=1;resizable=0;autosize=1;align=center;verticalAlign=middle;points=[];fillColor=none;strokeColor=none;rounded=0;fontColor=none;opacity=60;" parent="1" vertex="1">
          <mxGeometry x="296" y="40" width="60" height="30" as="geometry" />
        </mxCell>
        <mxCell id="8J5b4x6bjnte7Qw-fBxY-27" value="DynamoDB" style="text;html=1;resizable=0;autosize=1;align=center;verticalAlign=middle;points=[];fillColor=none;strokeColor=none;rounded=0;fontColor=none;opacity=60;" parent="1" vertex="1">
          <mxGeometry x="636" y="635" width="80" height="30" as="geometry" />
        </mxCell>
        <mxCell id="8J5b4x6bjnte7Qw-fBxY-28" value="Client" style="text;html=1;resizable=0;autosize=1;align=center;verticalAlign=middle;points=[];fillColor=none;strokeColor=none;rounded=0;fontColor=none;opacity=60;" parent="1" vertex="1">
          <mxGeometry x="107" y="405" width="50" height="30" as="geometry" />
        </mxCell>
        <mxCell id="8J5b4x6bjnte7Qw-fBxY-29" value="" style="sketch=0;points=[[0,0,0],[0.25,0,0],[0.5,0,0],[0.75,0,0],[1,0,0],[0,1,0],[0.25,1,0],[0.5,1,0],[0.75,1,0],[1,1,0],[0,0.25,0],[0,0.5,0],[0,0.75,0],[1,0.25,0],[1,0.5,0],[1,0.75,0]];outlineConnect=0;fontColor=#232F3E;gradientColor=#4D72F3;gradientDirection=north;fillColor=#3334B9;strokeColor=#ffffff;dashed=0;verticalLabelPosition=bottom;verticalAlign=top;align=center;html=1;fontSize=12;fontStyle=0;aspect=fixed;shape=mxgraph.aws4.resourceIcon;resIcon=mxgraph.aws4.dynamodb;opacity=60;" parent="1" vertex="1">
          <mxGeometry x="637" y="557" width="78" height="78" as="geometry" />
        </mxCell>
        <mxCell id="8J5b4x6bjnte7Qw-fBxY-30" value="" style="html=1;endArrow=block;elbow=vertical;startArrow=none;endFill=1;strokeColor=#545B64;rounded=0;fontColor=none;entryX=0.25;entryY=0;entryDx=0;entryDy=0;entryPerimeter=0;exitX=0.5;exitY=1;exitDx=0;exitDy=0;" parent="1" source="8J5b4x6bjnte7Qw-fBxY-11" target="8J5b4x6bjnte7Qw-fBxY-29" edge="1">
          <mxGeometry width="100" relative="1" as="geometry">
            <mxPoint x="417" y="585" as="sourcePoint" />
            <mxPoint x="587" y="405" as="targetPoint" />
          </mxGeometry>
        </mxCell>
        <mxCell id="8J5b4x6bjnte7Qw-fBxY-31" value="" style="html=1;endArrow=none;elbow=vertical;startArrow=block;endFill=0;strokeColor=#545B64;rounded=0;fontColor=none;entryX=0.25;entryY=0;entryDx=0;entryDy=0;entryPerimeter=0;exitX=0.5;exitY=1;exitDx=0;exitDy=0;startFill=1;" parent="1" edge="1">
          <mxGeometry width="100" relative="1" as="geometry">
            <mxPoint x="632.25" y="457" as="sourcePoint" />
            <mxPoint x="681.75" y="557" as="targetPoint" />
          </mxGeometry>
        </mxCell>
        <mxCell id="8J5b4x6bjnte7Qw-fBxY-32" value="Lambda" style="text;html=1;resizable=0;autosize=1;align=center;verticalAlign=middle;points=[];fillColor=none;strokeColor=none;rounded=0;fontColor=none;opacity=60;" parent="1" vertex="1">
          <mxGeometry x="571" y="227" width="70" height="30" as="geometry" />
        </mxCell>
        <mxCell id="8J5b4x6bjnte7Qw-fBxY-33" value="API Gateway" style="text;html=1;resizable=0;autosize=1;align=center;verticalAlign=middle;points=[];fillColor=none;strokeColor=none;rounded=0;fontColor=none;opacity=60;" parent="1" vertex="1">
          <mxGeometry x="281" y="405" width="90" height="30" as="geometry" />
        </mxCell>
        <mxCell id="8J5b4x6bjnte7Qw-fBxY-36" value="Request" style="text;html=1;resizable=0;autosize=1;align=center;verticalAlign=middle;points=[];fillColor=none;strokeColor=none;rounded=0;fontColor=none;opacity=60;" parent="1" vertex="1">
          <mxGeometry x="204" y="330" width="70" height="30" as="geometry" />
        </mxCell>
        <mxCell id="8J5b4x6bjnte7Qw-fBxY-38" value="Response" style="text;html=1;resizable=0;autosize=1;align=center;verticalAlign=middle;points=[];fillColor=none;strokeColor=none;rounded=0;fontColor=none;opacity=60;" parent="1" vertex="1">
          <mxGeometry x="201" y="374" width="80" height="30" as="geometry" />
        </mxCell>
      </root>
    </mxGraphModel>
  </diagram>
</mxfile>
